# xmcd
# 
# Track frame offsets:
#     150
#     31850
#     67894
#     86142
#     109075
#     137847
#     163748
#     188042
#     204540
#     225686
#     245968
#     285773
# 
# Disc length: 4277
# 
# Revision: 1
# Processed by: cddbd v1.5.2PL0 Copyright (c) Steve Scherf et al.
# Submitted via: BonkEnc v1.0.15
# 
DISCID=a410b30c
DTITLE=Michel Petrucciani - Blue Note Jazz Inspiration
DYEAR=2011
DGENRE=Jazz
TTITLE0=Our Tune
TTITLE1=Limbo (Live)
TTITLE2=She Did It Again
TTITLE3=One For Us
TTITLE4=Brazillian Suite
TTITLE5=Looking Up
TTITLE6=Memories Of Paris
TTITLE7=My BeBop Tune
TTITLE8=September Second
TTITLE9=Miles Davis' Licks
TTITLE10=Estate (Live)
TTITLE11=Caravan
EXTD=YEAR: 2011
EXTT0=
EXTT1=
EXTT2=
EXTT3=
EXTT4=
EXTT5=
EXTT6=
EXTT7=
EXTT8=
EXTT9=
EXTT10=
EXTT11=
PLAYORDER=
